<svg xmlns="http://www.w3.org/2000/svg" xmlns:xlink="http://www.w3.org/1999/xlink" width="6912" zoomAndPan="magnify" viewBox="0 0 5184 2592.000001" height="3456" preserveAspectRatio="xMidYMid meet" version="1.0"><defs><clipPath id="0be415dfee"><path d="M 1 1975 L 1549 1975 L 1549 2591 L 1 2591 Z M 1 1975 " clip-rule="nonzero"/></clipPath><clipPath id="706b7ace61"><path d="M 1 2270 L 476 2270 L 476 2591 L 1 2591 Z M 1 2270 " clip-rule="nonzero"/></clipPath><clipPath id="5732efb68e"><path d="M 1 922 L 1424 922 L 1424 2591 L 1 2591 Z M 1 922 " clip-rule="nonzero"/></clipPath><clipPath id="18bee50424"><path d="M 4006 0 L 5182.738281 0 L 5182.738281 1621 L 4006 1621 Z M 4006 0 " clip-rule="nonzero"/></clipPath><clipPath id="95c93ae6f2"><path d="M 3606 527 L 5182.738281 527 L 5182.738281 1937 L 3606 1937 Z M 3606 527 " clip-rule="nonzero"/></clipPath><clipPath id="14f1923738"><path d="M 3872 0 L 5182.738281 0 L 5182.738281 493 L 3872 493 Z M 3872 0 " clip-rule="nonzero"/></clipPath><clipPath id="8f1f404aed"><path d="M 567.902344 414.054688 L 728.359375 414.054688 L 728.359375 552.765625 L 567.902344 552.765625 Z M 567.902344 414.054688 " clip-rule="nonzero"/></clipPath><clipPath id="8de91ad8fb"><path d="M 2949 442 L 3224 442 L 3224 705 L 2949 705 Z M 2949 442 " clip-rule="nonzero"/></clipPath><clipPath id="327180d641"><path d="M 3036.945312 414.054688 L 3249.789062 661.472656 L 3035.375 845.949219 L 2822.535156 598.535156 Z M 3036.945312 414.054688 " clip-rule="nonzero"/></clipPath><clipPath id="1d7ff10caa"><path d="M 3036.945312 414.054688 L 3249.789062 661.472656 L 3035.375 845.949219 L 2822.535156 598.535156 Z M 3036.945312 414.054688 " clip-rule="nonzero"/></clipPath><clipPath id="d40a73d0a7"><path d="M 3036.945312 414.054688 L 3249.789062 661.472656 L 3035.375 845.949219 L 2822.535156 598.535156 Z M 3036.945312 414.054688 " clip-rule="nonzero"/></clipPath><clipPath id="235c66200d"><path d="M 2929 414 L 3249.972656 414 L 3249.972656 723 L 2929 723 Z M 2929 414 " clip-rule="nonzero"/></clipPath><clipPath id="57514c7f43"><path d="M 3036.945312 414.054688 L 3249.789062 661.472656 L 3035.375 845.949219 L 2822.535156 598.535156 Z M 3036.945312 414.054688 " clip-rule="nonzero"/></clipPath><clipPath id="5fb6bd00b7"><path d="M 3036.945312 414.054688 L 3249.789062 661.472656 L 3035.375 845.949219 L 2822.535156 598.535156 Z M 3036.945312 414.054688 " clip-rule="nonzero"/></clipPath><clipPath id="cc6efc0b11"><path d="M 3036.945312 414.054688 L 3249.789062 661.472656 L 3035.375 845.949219 L 2822.535156 598.535156 Z M 3036.945312 414.054688 " clip-rule="nonzero"/></clipPath><clipPath id="b393be4cbb"><path d="M 1960 2213 L 2205.625 2213 L 2205.625 2490 L 1960 2490 Z M 1960 2213 " clip-rule="nonzero"/></clipPath><clipPath id="e391955b43"><path d="M 1959.867188 2188.375 L 2233.148438 2361.761719 L 2083.085938 2598.3125 L 1809.804688 2424.925781 Z M 1959.867188 2188.375 " clip-rule="nonzero"/></clipPath><clipPath id="de638e000a"><path d="M 1959.867188 2188.375 L 2233.148438 2361.761719 L 2083.085938 2598.3125 L 1809.804688 2424.925781 Z M 1959.867188 2188.375 " clip-rule="nonzero"/></clipPath><clipPath id="de7109f0b8"><path d="M 1959.867188 2188.375 L 2233.148438 2361.761719 L 2083.085938 2598.3125 L 1809.804688 2424.925781 Z M 1959.867188 2188.375 " clip-rule="nonzero"/></clipPath><clipPath id="f675382b32"><path d="M 1946 2188 L 2233 2188 L 2233 2512 L 1946 2512 Z M 1946 2188 " clip-rule="nonzero"/></clipPath><clipPath id="14d7cdbed4"><path d="M 1959.867188 2188.375 L 2233.148438 2361.761719 L 2083.085938 2598.3125 L 1809.804688 2424.925781 Z M 1959.867188 2188.375 " clip-rule="nonzero"/></clipPath><clipPath id="76c4536149"><path d="M 1959.867188 2188.375 L 2233.148438 2361.761719 L 2083.085938 2598.3125 L 1809.804688 2424.925781 Z M 1959.867188 2188.375 " clip-rule="nonzero"/></clipPath><clipPath id="da70eccd28"><path d="M 1959.867188 2188.375 L 2233.148438 2361.761719 L 2083.085938 2598.3125 L 1809.804688 2424.925781 Z M 1959.867188 2188.375 " clip-rule="nonzero"/></clipPath><clipPath id="f2fbc44029"><path d="M 4119 2329 L 4277 2329 L 4277 2488 L 4119 2488 Z M 4119 2329 " clip-rule="nonzero"/></clipPath><clipPath id="27bcfa3fd2"><path d="M 4241.480469 2312.761719 L 4288.140625 2500.144531 L 4127.15625 2540.234375 L 4080.5 2352.851562 Z M 4241.480469 2312.761719 " clip-rule="nonzero"/></clipPath><clipPath id="4d057fec79"><path d="M 4241.480469 2312.761719 L 4288.140625 2500.144531 L 4127.15625 2540.234375 L 4080.5 2352.851562 Z M 4241.480469 2312.761719 " clip-rule="nonzero"/></clipPath><clipPath id="64486813e5"><path d="M 4241.480469 2312.761719 L 4288.140625 2500.144531 L 4127.15625 2540.234375 L 4080.5 2352.851562 Z M 4241.480469 2312.761719 " clip-rule="nonzero"/></clipPath><clipPath id="b66bfedd35"><path d="M 4104 2312 L 4288 2312 L 4288 2501 L 4104 2501 Z M 4104 2312 " clip-rule="nonzero"/></clipPath><clipPath id="6bd0b3804c"><path d="M 4241.480469 2312.761719 L 4288.140625 2500.144531 L 4127.15625 2540.234375 L 4080.5 2352.851562 Z M 4241.480469 2312.761719 " clip-rule="nonzero"/></clipPath><clipPath id="9d37296856"><path d="M 4241.480469 2312.761719 L 4288.140625 2500.144531 L 4127.15625 2540.234375 L 4080.5 2352.851562 Z M 4241.480469 2312.761719 " clip-rule="nonzero"/></clipPath><clipPath id="a5ed62e765"><path d="M 4241.480469 2312.761719 L 4288.140625 2500.144531 L 4127.15625 2540.234375 L 4080.5 2352.851562 Z M 4241.480469 2312.761719 " clip-rule="nonzero"/></clipPath><clipPath id="df2bf60c32"><path d="M 1460 331 L 2290 331 L 2290 1160.609375 L 1460 1160.609375 Z M 1460 331 " clip-rule="nonzero"/></clipPath><clipPath id="236e6de05f"><path d="M 1331 521 L 1563.789062 521 L 1563.789062 817 L 1331 817 Z M 1331 521 " clip-rule="nonzero"/></clipPath><clipPath id="57eec08921"><path d="M 3037 2206 L 3371 2206 L 3371 2541.453125 L 3037 2541.453125 Z M 3037 2206 " clip-rule="nonzero"/></clipPath><clipPath id="71b3e32615"><path d="M 3203 2182.441406 L 3311.617188 2182.441406 L 3311.617188 2320 L 3203 2320 Z M 3203 2182.441406 " clip-rule="nonzero"/></clipPath><clipPath id="8634bd6feb"><path d="M 3207 2182.441406 L 3326 2182.441406 L 3326 2333 L 3207 2333 Z M 3207 2182.441406 " clip-rule="nonzero"/></clipPath><clipPath id="60822ff132"><path d="M 3212 2184 L 3339 2184 L 3339 2345.527344 L 3212 2345.527344 Z M 3212 2184 " clip-rule="nonzero"/></clipPath><clipPath id="df4befdcc3"><path d="M 3328 2283 L 3422.953125 2283 L 3422.953125 2403 L 3328 2403 Z M 3328 2283 " clip-rule="nonzero"/></clipPath><clipPath id="ab73849ad6"><path d="M 3347 2302.011719 L 3422 2302.011719 L 3422 2399 L 3347 2399 Z M 3347 2302.011719 " clip-rule="nonzero"/></clipPath><clipPath id="5a94d9d533"><path d="M 1 0 L 25 0 L 25 450 L 1 450 Z M 1 0 " clip-rule="nonzero"/></clipPath><clipPath id="626a63cb52"><path d="M 1 0 L 87 0 L 87 482 L 1 482 Z M 1 0 " clip-rule="nonzero"/></clipPath><clipPath id="9ab23d61d8"><path d="M 1 0 L 146 0 L 146 507 L 1 507 Z M 1 0 " clip-rule="nonzero"/></clipPath><clipPath id="6a52c16e61"><path d="M 1 0 L 203 0 L 203 526 L 1 526 Z M 1 0 " clip-rule="nonzero"/></clipPath><clipPath id="e9ee9b8aac"><path d="M 1 0 L 257 0 L 257 538 L 1 538 Z M 1 0 " clip-rule="nonzero"/></clipPath><clipPath id="c457837299"><path d="M 1 0 L 309 0 L 309 542.808594 L 1 542.808594 Z M 1 0 " clip-rule="nonzero"/></clipPath><clipPath id="48b74b9960"><path d="M 1 0 L 357 0 L 357 542.808594 L 1 542.808594 Z M 1 0 " clip-rule="nonzero"/></clipPath><clipPath id="e7be94dd2b"><path d="M 360 0 L 503.648438 0 L 503.648438 340 L 360 340 Z M 360 0 " clip-rule="nonzero"/></clipPath><clipPath id="a0647e7207"><path d="M 2367 1242.328125 L 2582.75 1242.328125 L 2582.75 1758 L 2367 1758 Z M 2367 1242.328125 " clip-rule="nonzero"/></clipPath><clipPath id="10206818f6"><path d="M 2392 1242.328125 L 2618 1242.328125 L 2618 1782 L 2392 1782 Z M 2392 1242.328125 " clip-rule="nonzero"/></clipPath><clipPath id="b9c3f05178"><path d="M 2572 1310 L 2798 1310 L 2798 1848.839844 L 2572 1848.839844 Z M 2572 1310 " clip-rule="nonzero"/></clipPath><clipPath id="58297515d2"><path d="M 2824 1558 L 2898.246094 1558 L 2898.246094 1745 L 2824 1745 Z M 2824 1558 " clip-rule="nonzero"/></clipPath><clipPath id="7b2044547d"><path d="M 5170 2442 L 5182.738281 2442 L 5182.738281 2447 L 5170 2447 Z M 5170 2442 " clip-rule="nonzero"/></clipPath><clipPath id="95298e9664"><path d="M 5168 2500 L 5182.738281 2500 L 5182.738281 2521 L 5168 2521 Z M 5168 2500 " clip-rule="nonzero"/></clipPath><clipPath id="aea26cb42f"><path d="M 4866 2574 L 4887 2574 L 4887 2591 L 4866 2591 Z M 4866 2574 " clip-rule="nonzero"/></clipPath><clipPath id="1bbf250521"><path d="M 4941 2574 L 4962 2574 L 4962 2591 L 4941 2591 Z M 4941 2574 " clip-rule="nonzero"/></clipPath><clipPath id="1f5174f917"><path d="M 5017 2574 L 5037 2574 L 5037 2591 L 5017 2591 Z M 5017 2574 " clip-rule="nonzero"/></clipPath><clipPath id="60bf572c88"><path d="M 5092 2574 L 5113 2574 L 5113 2591 L 5092 2591 Z M 5092 2574 " clip-rule="nonzero"/></clipPath><clipPath id="2a98af759c"><path d="M 5168 2574 L 5182.738281 2574 L 5182.738281 2591 L 5168 2591 Z M 5168 2574 " clip-rule="nonzero"/></clipPath><clipPath id="0714ddff31"><path d="M 4582.046875 2327.394531 L 5182.734375 2327.394531 L 5182.734375 2591 L 4582.046875 2591 Z M 4582.046875 2327.394531 " clip-rule="nonzero"/></clipPath><clipPath id="52fe168258"><path d="M 4524 1525 L 5182.738281 1525 L 5182.738281 2484 L 4524 2484 Z M 4524 1525 " clip-rule="nonzero"/></clipPath><clipPath id="431d986d78"><path d="M 1271 1638 L 2230 1638 L 2230 2591 L 1271 2591 Z M 1271 1638 " clip-rule="nonzero"/></clipPath><clipPath id="a2b273344f"><path d="M 3284 2014 L 4243 2014 L 4243 2591 L 3284 2591 Z M 3284 2014 " clip-rule="nonzero"/></clipPath></defs><g clip-path="url(#0be415dfee)"><path fill="#fcce54" d="M 1524.46875 2625.835938 C 1491.957031 2593.3125 1439.195312 2593.3125 1406.699219 2625.820312 L 1082.75 2949.730469 L 1207.898438 2824.605469 C 1175.375 2857.128906 1122.609375 2857.128906 1090.117188 2824.605469 C 1057.578125 2792.082031 1057.578125 2739.332031 1090.117188 2706.820312 L 964.941406 2831.957031 L 1156.367188 2640.582031 C 1188.886719 2608.03125 1188.886719 2555.304688 1156.367188 2522.765625 C 1123.828125 2490.242188 1071.09375 2490.242188 1038.554688 2522.765625 L 865.546875 2695.785156 C 833.023438 2728.296875 780.304688 2728.296875 747.78125 2695.769531 C 715.257812 2663.246094 715.257812 2610.507812 747.78125 2577.984375 L 766.167969 2559.570312 L 1207.898438 2117.902344 C 1240.433594 2085.378906 1240.433594 2032.625 1207.925781 2000.101562 C 1175.375 1967.578125 1122.609375 1967.578125 1090.117188 2000.101562 L -257.144531 3347.246094 C -289.679688 3379.78125 -289.679688 3432.535156 -257.144531 3465.058594 C -224.621094 3497.554688 -171.886719 3497.554688 -139.363281 3465.058594 L 199.289062 3126.402344 C 231.824219 3093.878906 284.5625 3093.878906 317.085938 3126.433594 C 349.605469 3158.925781 349.605469 3211.679688 317.085938 3244.191406 L 125.660156 3435.582031 C 93.136719 3468.132812 93.136719 3520.855469 125.6875 3553.382812 C 158.199219 3585.890625 210.945312 3585.90625 243.457031 3553.382812 L 364.960938 3431.882812 C 397.5 3399.402344 450.21875 3399.402344 482.726562 3431.910156 C 515.265625 3464.4375 515.265625 3517.160156 482.726562 3549.710938 L 1064.335938 2968.144531 L 361.265625 3671.167969 C 328.714844 3703.691406 328.742188 3756.445312 361.265625 3788.941406 C 393.773438 3821.464844 446.523438 3821.464844 479.058594 3788.941406 L 1524.46875 2743.621094 C 1557.019531 2711.097656 1557.019531 2658.359375 1524.46875 2625.835938 " fill-opacity="1" fill-rule="nonzero"/></g><g clip-path="url(#706b7ace61)"><path fill="#b2e5d6" d="M -439.84375 3420.761719 C -407.304688 3453.289062 -407.304688 3506.011719 -439.84375 3538.535156 L 108.648438 2990.132812 C 76.125 3022.65625 23.363281 3022.65625 -9.144531 2990.132812 C -41.667969 2957.605469 -41.667969 2904.855469 -9.144531 2872.34375 L -476.640625 3339.777344 L 9.253906 2853.929688 L 450.984375 2412.261719 C 483.507812 2379.710938 483.507812 2326.984375 450.984375 2294.460938 C 418.449219 2261.9375 365.699219 2261.9375 333.191406 2294.460938 L -108.539062 2736.128906 L -174.789062 2802.394531 L -1014.070312 3641.605469 C -1046.59375 3674.128906 -1046.59375 3726.867188 -1014.070312 3759.390625 C -981.546875 3791.914062 -928.8125 3791.914062 -896.277344 3759.390625 L -557.621094 3420.761719 C -525.070312 3388.238281 -472.363281 3388.238281 -439.84375 3420.761719 " fill-opacity="1" fill-rule="nonzero"/></g><g clip-path="url(#5732efb68e)"><path fill="#e362a2" d="M 1398.980469 1572.941406 C 1366.488281 1540.445312 1313.722656 1540.445312 1281.214844 1572.941406 L 957.277344 1896.863281 L 1082.425781 1771.695312 C 1049.902344 1804.21875 997.136719 1804.21875 964.628906 1771.695312 C 932.109375 1739.199219 932.109375 1686.449219 964.628906 1653.925781 L 839.46875 1779.078125 L 1030.878906 1587.671875 C 1063.414062 1555.148438 1063.414062 1502.394531 1030.878906 1469.898438 C 998.355469 1437.347656 945.621094 1437.347656 913.070312 1469.898438 L 740.074219 1642.890625 C 707.539062 1675.414062 654.832031 1675.414062 622.292969 1642.859375 C 589.773438 1610.363281 589.773438 1557.625 622.292969 1525.089844 L 1082.425781 1065.003906 C 1114.949219 1032.480469 1114.949219 979.742188 1082.4375 947.21875 C 1049.902344 914.695312 997.136719 914.695312 964.628906 947.21875 L 522.886719 1388.902344 L 456.652344 1455.167969 L -382.628906 2294.375 C -415.152344 2326.902344 -415.152344 2379.625 -382.628906 2412.175781 C -350.09375 2444.671875 -297.371094 2444.671875 -264.835938 2412.175781 L 73.816406 2073.519531 C 106.339844 2040.996094 159.074219 2040.996094 191.597656 2073.519531 C 224.132812 2106.046875 224.132812 2158.785156 191.597656 2191.308594 L 0.1875 2382.710938 C -32.332031 2415.238281 -32.320312 2467.988281 0.1875 2500.484375 C 32.710938 2533.007812 85.445312 2533.039062 117.996094 2500.484375 L 239.460938 2379.03125 C 271.996094 2346.503906 324.734375 2346.503906 357.253906 2379.03125 C 389.777344 2411.554688 389.777344 2464.277344 357.253906 2496.800781 L 938.863281 1915.25 L 235.792969 2618.285156 C 203.242188 2650.796875 203.253906 2703.546875 235.792969 2736.070312 C 268.285156 2768.597656 321.050781 2768.597656 353.574219 2736.070312 L 1398.980469 1690.738281 C 1431.53125 1658.214844 1431.53125 1605.464844 1398.980469 1572.941406 " fill-opacity="1" fill-rule="nonzero"/></g><g clip-path="url(#18bee50424)"><path fill="#fcce54" d="M 5941.066406 348.597656 C 5906.261719 313.75 5849.757812 313.75 5814.941406 348.582031 L 5468.015625 695.609375 L 5602.042969 561.546875 C 5567.199219 596.394531 5510.695312 596.394531 5475.890625 561.546875 C 5441.058594 526.699219 5441.058594 470.179688 5475.890625 435.363281 L 5341.835938 569.425781 L 5546.84375 364.390625 C 5581.675781 329.515625 5581.675781 273.023438 5546.84375 238.175781 C 5512.011719 203.328125 5455.523438 203.328125 5420.664062 238.175781 L 5235.386719 423.535156 C 5200.554688 458.367188 5144.09375 458.367188 5109.261719 423.519531 C 5074.417969 388.671875 5074.417969 332.179688 5109.261719 297.332031 L 5128.953125 277.601562 L 5602.042969 -195.585938 C 5636.875 -230.433594 5636.875 -286.953125 5602.058594 -321.800781 C 5567.199219 -356.648438 5510.695312 -356.648438 5475.890625 -321.800781 L 4033.003906 1121.496094 C 3998.171875 1156.34375 3998.171875 1212.851562 4033.003906 1247.699219 C 4067.835938 1282.53125 4124.308594 1282.53125 4159.15625 1247.699219 L 4521.847656 884.890625 C 4556.679688 850.042969 4613.152344 850.042969 4648 884.90625 C 4682.832031 919.738281 4682.832031 976.246094 4648 1011.078125 L 4442.992188 1216.136719 C 4408.144531 1251 4408.144531 1307.492188 4443.003906 1342.339844 C 4477.824219 1377.15625 4534.324219 1377.1875 4569.144531 1342.339844 L 4699.277344 1212.171875 C 4734.105469 1177.367188 4790.582031 1177.367188 4825.398438 1212.199219 C 4860.230469 1247.03125 4860.230469 1303.539062 4825.398438 1338.402344 L 5448.285156 715.328125 L 4695.308594 1468.523438 C 4660.449219 1503.371094 4660.476562 1559.894531 4695.308594 1594.710938 C 4730.125 1629.558594 4786.628906 1629.558594 4821.460938 1594.710938 L 5941.066406 474.785156 C 5975.925781 439.9375 5975.925781 383.445312 5941.066406 348.597656 " fill-opacity="1" fill-rule="nonzero"/></g><path fill="#b2e5d6" d="M 3837.34375 1200.257812 C 3872.175781 1235.105469 3872.175781 1291.597656 3837.34375 1326.445312 L 4424.761719 738.886719 C 4389.929688 773.734375 4333.425781 773.734375 4298.609375 738.886719 C 4263.777344 704.039062 4263.777344 647.519531 4298.609375 612.699219 L 3797.9375 1113.496094 L 4318.3125 592.96875 L 4791.390625 119.78125 C 4826.234375 84.90625 4826.234375 28.414062 4791.390625 -6.433594 C 4756.558594 -41.28125 4700.054688 -41.28125 4665.238281 -6.433594 L 4192.160156 466.765625 L 4121.207031 537.765625 L 3222.351562 1436.867188 C 3187.519531 1471.710938 3187.519531 1528.203125 3222.351562 1563.050781 C 3257.195312 1597.898438 3313.671875 1597.898438 3348.503906 1563.050781 L 3711.191406 1200.257812 C 3746.050781 1165.410156 3802.511719 1165.410156 3837.34375 1200.257812 " fill-opacity="1" fill-rule="nonzero"/><g clip-path="url(#95c93ae6f2)"><path fill="#b2e5d6" d="M 5658.703125 640.28125 C 5623.871094 605.460938 5567.394531 605.433594 5532.535156 640.28125 L 5132.421875 1040.554688 C 5097.5625 1075.402344 5041.101562 1075.402344 5006.242188 1040.554688 C 4971.410156 1005.707031 4971.410156 949.214844 5006.242188 914.371094 L 5130.425781 790.152344 C 5165.257812 755.304688 5165.257812 698.785156 5130.425781 663.949219 C 5095.609375 629.117188 5039.117188 629.117188 5004.273438 663.949219 L 4657.363281 1010.976562 L 4791.390625 876.886719 C 4756.558594 911.734375 4700.082031 911.734375 4665.238281 876.886719 C 4630.40625 842.070312 4630.40625 785.546875 4665.238281 750.699219 L 4531.195312 884.792969 L 4736.203125 679.730469 C 4771.035156 644.882812 4771.035156 588.363281 4736.203125 553.542969 C 4701.386719 518.667969 4644.882812 518.667969 4610.050781 553.542969 L 3632.335938 1531.503906 C 3597.535156 1566.351562 3597.535156 1622.859375 3632.367188 1657.691406 C 3667.183594 1692.523438 3723.6875 1692.523438 3758.515625 1657.691406 L 4511.476562 904.496094 L 3888.609375 1527.566406 C 3923.4375 1492.71875 3979.914062 1492.71875 4014.757812 1527.566406 C 4049.621094 1562.398438 4049.621094 1618.90625 4014.757812 1653.738281 L 4637.644531 1030.683594 L 3884.667969 1783.894531 C 3849.824219 1818.710938 3849.824219 1875.230469 3884.667969 1910.078125 C 3919.5 1944.925781 3975.976562 1944.925781 4010.808594 1910.078125 L 4418.855469 1501.925781 C 4453.683594 1467.082031 4510.160156 1467.082031 4545.007812 1501.925781 C 4579.808594 1536.773438 4579.808594 1593.265625 4545.007812 1628.113281 L 4554.851562 1618.253906 C 4520.019531 1653.101562 4520.019531 1709.59375 4554.851562 1744.441406 C 4589.683594 1779.289062 4646.1875 1779.289062 4681.003906 1744.46875 L 5658.703125 766.480469 C 5693.519531 731.621094 5693.519531 675.128906 5658.703125 640.28125 " fill-opacity="1" fill-rule="nonzero"/></g><g clip-path="url(#14f1923738)"><path fill="#e362a2" d="M 5806.683594 -779.445312 C 5771.878906 -814.265625 5715.375 -814.265625 5680.558594 -779.445312 L 5333.632812 -432.40625 L 5467.660156 -566.496094 C 5432.816406 -531.648438 5376.3125 -531.648438 5341.507812 -566.496094 C 5306.664062 -601.328125 5306.664062 -657.835938 5341.507812 -692.683594 L 5207.453125 -558.59375 L 5412.460938 -763.652344 C 5447.292969 -798.5 5447.292969 -855.019531 5412.460938 -889.839844 C 5377.617188 -924.714844 5321.140625 -924.714844 5286.28125 -889.839844 L 5101.003906 -704.511719 C 5066.160156 -669.664062 5009.710938 -669.664062 4974.878906 -704.527344 C 4940.035156 -739.359375 4940.035156 -795.851562 4974.878906 -830.710938 L 5467.660156 -1323.628906 C 5502.492188 -1358.476562 5502.492188 -1414.96875 5467.675781 -1449.816406 C 5432.816406 -1484.664062 5376.3125 -1484.664062 5341.507812 -1449.816406 L 4868.402344 -976.632812 L 4797.464844 -905.632812 L 3898.621094 -6.53125 C 3863.777344 28.316406 3863.777344 84.808594 3898.621094 119.683594 C 3933.453125 154.5 3989.929688 154.5 4024.773438 119.683594 L 4387.464844 -243.140625 C 4422.296875 -277.988281 4478.769531 -277.988281 4513.601562 -243.140625 C 4548.449219 -208.292969 4548.449219 -151.800781 4513.601562 -116.953125 L 4308.609375 88.109375 C 4273.761719 122.953125 4273.792969 179.476562 4308.609375 214.292969 C 4343.441406 249.140625 4399.914062 249.167969 4434.777344 214.292969 L 4564.867188 84.167969 C 4599.695312 49.320312 4656.1875 49.320312 4691.015625 84.167969 C 4725.847656 119.015625 4725.847656 175.507812 4691.015625 210.355469 L 5313.902344 -412.714844 L 4560.925781 340.507812 C 4526.066406 375.328125 4526.097656 431.847656 4560.925781 466.695312 C 4595.746094 501.542969 4652.234375 501.542969 4687.078125 466.695312 L 5806.683594 -653.230469 C 5841.542969 -688.078125 5841.542969 -744.601562 5806.683594 -779.445312 " fill-opacity="1" fill-rule="nonzero"/></g><path fill="#f0f0a1" d="M 716.121094 420.699219 L 648.203125 539.675781 L 580.296875 420.699219 Z M 716.121094 420.699219 " fill-opacity="1" fill-rule="nonzero"/><g clip-path="url(#8f1f404aed)"><path fill="#f0f0a1" d="M 648.203125 552.582031 L 647.890625 551.945312 L 567.902344 414.242188 L 728.359375 414.242188 Z M 569.316406 415.035156 L 648.203125 550.996094 L 727.101562 415.035156 Z M 569.316406 415.035156 " fill-opacity="1" fill-rule="nonzero"/></g><g clip-path="url(#8de91ad8fb)"><g clip-path="url(#327180d641)"><g clip-path="url(#1d7ff10caa)"><g clip-path="url(#d40a73d0a7)"><path fill="#f0f0a1" d="M 3223.269531 651.457031 L 2949.324219 704.933594 L 3043.09375 442.019531 Z M 3223.269531 651.457031 " fill-opacity="1" fill-rule="nonzero"/></g></g></g></g><g clip-path="url(#235c66200d)"><g clip-path="url(#57514c7f43)"><g clip-path="url(#5fb6bd00b7)"><g clip-path="url(#cc6efc0b11)"><path fill="#f0f0a1" d="M 2929.378906 722.085938 L 2929.929688 720.769531 L 3036.621094 414.324219 L 3249.476562 661.742188 Z M 3037.285156 417.554688 L 2931.816406 719.988281 L 3246.585938 660.847656 Z M 3037.285156 417.554688 " fill-opacity="1" fill-rule="nonzero"/></g></g></g></g><g clip-path="url(#b393be4cbb)"><g clip-path="url(#e391955b43)"><g clip-path="url(#de638e000a)"><g clip-path="url(#de7109f0b8)"><path fill="#f0f0a1" d="M 2205.117188 2359.890625 L 1960.757812 2489.351562 L 1973.761719 2213.121094 Z M 2205.117188 2359.890625 " fill-opacity="1" fill-rule="nonzero"/></g></g></g></g><g clip-path="url(#f675382b32)"><g clip-path="url(#14d7cdbed4)"><g clip-path="url(#76c4536149)"><g clip-path="url(#da70eccd28)"><path fill="#f0f0a1" d="M 1946.804688 2511.351562 L 1946.949219 2509.933594 L 1959.640625 2188.730469 L 2232.921875 2362.117188 Z M 1961.199219 2191.605469 L 1948.503906 2508.671875 L 2229.933594 2362.101562 Z M 1961.199219 2191.605469 " fill-opacity="1" fill-rule="nonzero"/></g></g></g></g><g clip-path="url(#f2fbc44029)"><g clip-path="url(#27bcfa3fd2)"><g clip-path="url(#4d057fec79)"><g clip-path="url(#64486813e5)"><path fill="#f0f0a1" d="M 4276.851562 2487.777344 L 4119.070312 2442.84375 L 4237.359375 2329.152344 Z M 4276.851562 2487.777344 " fill-opacity="1" fill-rule="nonzero"/></g></g></g></g><g clip-path="url(#b66bfedd35)"><g clip-path="url(#6bd0b3804c)"><g clip-path="url(#9d37296856)"><g clip-path="url(#a5ed62e765)"><path fill="#f0f0a1" d="M 4104.097656 2446.570312 L 4104.734375 2446.019531 L 4241.242188 2312.820312 L 4287.898438 2500.203125 Z M 4240.730469 2314.691406 L 4105.925781 2446.117188 L 4286.625 2498.96875 Z M 4240.730469 2314.691406 " fill-opacity="1" fill-rule="nonzero"/></g></g></g></g><g clip-path="url(#df2bf60c32)"><path fill="#bacfed" d="M 1875.300781 331.613281 C 1646.453125 331.613281 1460.953125 517.125 1460.953125 745.984375 C 1460.953125 974.898438 1646.453125 1160.394531 1875.300781 1160.394531 C 2104.21875 1160.394531 2289.707031 974.898438 2289.707031 745.984375 C 2289.707031 517.125 2104.21875 331.613281 1875.300781 331.613281 Z M 1875.300781 390.132812 C 1678.808594 390.132812 1519.453125 549.464844 1519.453125 745.984375 C 1519.453125 942.558594 1678.808594 1101.894531 1875.300781 1101.894531 C 2071.867188 1101.894531 2231.207031 942.542969 2231.207031 745.984375 C 2231.207031 549.464844 2071.867188 390.132812 1875.300781 390.132812 Z M 1875.300781 390.132812 " fill-opacity="1" fill-rule="evenodd"/></g><path fill="#d14a95" d="M 1794.730469 346.996094 L 1843.699219 409.46875 C 1852.480469 424.851562 1859.636719 440.746094 1865.203125 457.078125 L 1753.695312 314.65625 C 1768.230469 323.949219 1781.957031 334.742188 1794.730469 346.996094 Z M 1794.730469 346.996094 " fill-opacity="1" fill-rule="evenodd"/><path fill="#d14a95" d="M 1716.246094 294.570312 L 1875.753906 498.285156 C 1877.171875 506.230469 1878.191406 514.292969 1878.886719 522.339844 L 1693.609375 285.773438 C 1701.273438 288.378906 1708.824219 291.269531 1716.246094 294.570312 Z M 1716.246094 294.570312 " fill-opacity="1" fill-rule="evenodd"/><path fill="#d14a95" d="M 1665.804688 277.941406 L 1879.792969 551.222656 C 1879.679688 557.523438 1879.339844 563.757812 1878.773438 570.003906 L 1647.304688 274.46875 C 1653.496094 275.433594 1659.671875 276.566406 1665.804688 277.941406 Z M 1665.804688 277.941406 " fill-opacity="1" fill-rule="evenodd"/><path fill="#d14a95" d="M 1623.523438 271.863281 L 1875.640625 593.730469 C 1874.679688 599 1873.601562 604.34375 1872.300781 609.625 L 1607.304688 271.238281 C 1612.742188 271.296875 1618.140625 271.464844 1623.523438 271.863281 Z M 1623.523438 271.863281 " fill-opacity="1" fill-rule="evenodd"/><path fill="#d14a95" d="M 1586.140625 271.863281 L 1866.617188 630.039062 C 1865.089844 634.699219 1863.503906 639.289062 1861.746094 643.890625 L 1571.496094 273.28125 C 1576.382812 272.710938 1581.253906 272.203125 1586.140625 271.863281 Z M 1586.140625 271.863281 " fill-opacity="1" fill-rule="evenodd"/><path fill="#d14a95" d="M 1552.203125 276.410156 L 1854.140625 661.882812 C 1852.15625 666.019531 1850.101562 670.097656 1848.007812 674.191406 L 1538.800781 279.414062 C 1543.234375 278.28125 1547.710938 277.261719 1552.203125 276.410156 Z M 1552.203125 276.410156 " fill-opacity="1" fill-rule="evenodd"/><path fill="#d14a95" d="M 1521.039062 284.457031 L 1838.8125 690.199219 C 1836.546875 693.882812 1834.167969 697.578125 1831.675781 701.148438 L 1508.671875 288.777344 C 1512.824219 287.246094 1516.902344 285.757812 1521.039062 284.457031 Z M 1521.039062 284.457031 " fill-opacity="1" fill-rule="evenodd"/><path fill="#d14a95" d="M 1492.339844 295.574219 L 1821.105469 715.457031 C 1818.5 718.742188 1815.835938 722.03125 1813.046875 725.21875 L 1480.867188 301.085938 C 1484.679688 299.160156 1488.472656 297.347656 1492.339844 295.574219 Z M 1492.339844 295.574219 " fill-opacity="1" fill-rule="evenodd"/><path fill="#d14a95" d="M 1465.726562 309.429688 L 1801.320312 737.921875 C 1798.414062 740.871094 1795.414062 743.757812 1792.351562 746.605469 L 1455.171875 316.015625 C 1458.628906 313.75 1462.140625 311.527344 1465.726562 309.429688 Z M 1465.726562 309.429688 " fill-opacity="1" fill-rule="evenodd"/><path fill="#d14a95" d="M 1441.148438 325.832031 L 1779.460938 757.898438 C 1777.875 759.199219 1776.289062 760.503906 1774.648438 761.765625 C 1773.003906 763.066406 1771.347656 764.3125 1769.703125 765.503906 L 1431.390625 333.496094 C 1432.976562 332.195312 1434.5625 330.890625 1436.207031 329.628906 C 1437.804688 328.328125 1439.449219 327.082031 1441.148438 325.832031 Z M 1441.148438 325.832031 " fill-opacity="1" fill-rule="evenodd"/><path fill="#d14a95" d="M 1418.457031 344.730469 L 1755.679688 775.320312 C 1752.222656 777.644531 1748.695312 779.851562 1745.128906 781.964844 L 1409.546875 353.414062 C 1412.4375 350.453125 1415.382812 347.621094 1418.457031 344.730469 Z M 1418.457031 344.730469 " fill-opacity="1" fill-rule="evenodd"/><path fill="#d14a95" d="M 1397.789062 366.175781 L 1729.984375 790.292969 C 1726.175781 792.234375 1722.378906 794.046875 1718.527344 795.804688 L 1389.675781 375.9375 C 1392.296875 372.636719 1395.015625 369.351562 1397.789062 366.175781 Z M 1397.789062 366.175781 " fill-opacity="1" fill-rule="evenodd"/><path fill="#d14a95" d="M 1379.179688 390.230469 L 1702.121094 802.617188 C 1698.027344 804.148438 1693.949219 805.621094 1689.800781 806.921875 L 1372.039062 401.195312 C 1374.304688 397.496094 1376.683594 393.8125 1379.179688 390.230469 Z M 1379.179688 390.230469 " fill-opacity="1" fill-rule="evenodd"/><path fill="#d14a95" d="M 1362.847656 417.1875 L 1672.050781 811.980469 C 1667.617188 813.113281 1663.140625 814.132812 1658.652344 814.984375 L 1356.710938 429.511719 C 1358.640625 425.359375 1360.679688 421.222656 1362.847656 417.1875 Z M 1362.847656 417.1875 " fill-opacity="1" fill-rule="evenodd"/><path fill="#d14a95" d="M 1349.105469 447.5 L 1639.359375 818.042969 C 1634.484375 818.667969 1629.597656 819.121094 1624.726562 819.460938 L 1344.234375 461.339844 C 1345.707031 456.695312 1347.351562 452.089844 1349.105469 447.5 Z M 1349.105469 447.5 " fill-opacity="1" fill-rule="evenodd"/><path fill="#d14a95" d="M 1338.496094 481.769531 L 1603.492188 820.15625 C 1598.109375 820.082031 1592.65625 819.925781 1587.273438 819.515625 L 1335.210938 497.660156 C 1336.175781 492.320312 1337.25 487.050781 1338.496094 481.769531 Z M 1338.496094 481.769531 " fill-opacity="1" fill-rule="evenodd"/><g clip-path="url(#236e6de05f)"><path fill="#d14a95" d="M 1332.082031 521.375 L 1563.546875 816.910156 C 1557.300781 815.945312 1551.183594 814.8125 1545.046875 813.398438 L 1331.003906 540.160156 C 1331.171875 533.867188 1331.511719 527.621094 1332.082031 521.375 Z M 1332.082031 521.375 " fill-opacity="1" fill-rule="evenodd"/></g><path fill="#d14a95" d="M 1331.96875 569.042969 L 1517.1875 805.621094 C 1509.578125 803 1502.03125 800.054688 1494.59375 796.824219 L 1335.027344 593.109375 C 1333.679688 585.105469 1332.648438 577.101562 1331.96875 569.042969 Z M 1331.96875 569.042969 " fill-opacity="1" fill-rule="evenodd"/><path fill="#d14a95" d="M 1345.59375 634.300781 L 1457.15625 776.679688 C 1442.621094 767.375 1428.882812 756.59375 1416.0625 744.398438 L 1367.152344 681.914062 C 1358.355469 666.527344 1351.160156 650.59375 1345.59375 634.300781 Z M 1345.59375 634.300781 " fill-opacity="1" fill-rule="evenodd"/><g clip-path="url(#57eec08921)"><path fill="#bacfed" d="M 3203.808594 2206.804688 C 3295.609375 2206.804688 3370.019531 2281.683594 3370.019531 2374.070312 C 3370.019531 2466.472656 3295.609375 2541.367188 3203.808594 2541.367188 C 3111.992188 2541.367188 3037.582031 2466.472656 3037.582031 2374.070312 C 3037.582031 2281.683594 3111.992188 2206.804688 3203.808594 2206.804688 Z M 3203.808594 2230.417969 C 3282.636719 2230.417969 3346.546875 2294.746094 3346.546875 2374.070312 C 3346.546875 2453.425781 3282.636719 2517.738281 3203.808594 2517.738281 C 3124.964844 2517.738281 3061.054688 2453.425781 3061.054688 2374.070312 C 3061.054688 2294.746094 3124.964844 2230.417969 3203.808594 2230.417969 Z M 3203.808594 2230.417969 " fill-opacity="1" fill-rule="evenodd"/></g><path fill="#d14a95" d="M 3236.132812 2213.007812 L 3216.5 2238.238281 C 3212.972656 2244.441406 3210.097656 2250.859375 3207.875 2257.445312 L 3252.59375 2199.964844 C 3246.769531 2203.71875 3241.261719 2208.066406 3236.132812 2213.007812 Z M 3236.132812 2213.007812 " fill-opacity="1" fill-rule="evenodd"/><path fill="#d14a95" d="M 3267.621094 2191.847656 L 3203.636719 2274.089844 C 3203.070312 2277.292969 3202.660156 2280.550781 3202.378906 2283.792969 L 3276.699219 2188.304688 C 3273.625 2189.351562 3270.59375 2190.515625 3267.621094 2191.847656 Z M 3267.621094 2191.847656 " fill-opacity="1" fill-rule="evenodd"/><path fill="#d14a95" d="M 3287.847656 2185.132812 L 3202.023438 2295.453125 C 3202.066406 2298.003906 3202.195312 2300.523438 3202.421875 2303.046875 L 3295.269531 2183.742188 C 3292.792969 2184.125 3290.3125 2184.59375 3287.847656 2185.132812 Z M 3287.847656 2185.132812 " fill-opacity="1" fill-rule="evenodd"/><g clip-path="url(#71b3e32615)"><path fill="#d14a95" d="M 3304.804688 2182.679688 L 3203.679688 2312.609375 C 3204.0625 2314.746094 3204.503906 2316.898438 3205.027344 2319.023438 L 3311.320312 2182.441406 C 3309.136719 2182.453125 3306.972656 2182.523438 3304.804688 2182.679688 Z M 3304.804688 2182.679688 " fill-opacity="1" fill-rule="evenodd"/></g><g clip-path="url(#8634bd6feb)"><path fill="#d14a95" d="M 3319.804688 2182.679688 L 3207.292969 2327.269531 C 3207.914062 2329.152344 3208.554688 2331.007812 3209.261719 2332.863281 L 3325.683594 2183.261719 C 3323.726562 2183.035156 3321.757812 2182.824219 3319.804688 2182.679688 Z M 3319.804688 2182.679688 " fill-opacity="1" fill-rule="evenodd"/></g><g clip-path="url(#60822ff132)"><path fill="#d14a95" d="M 3333.417969 2184.523438 L 3212.308594 2340.117188 C 3213.101562 2341.800781 3213.921875 2343.445312 3214.773438 2345.089844 L 3338.800781 2185.726562 C 3337.015625 2185.273438 3335.214844 2184.863281 3333.417969 2184.523438 Z M 3333.417969 2184.523438 " fill-opacity="1" fill-rule="evenodd"/></g><path fill="#d14a95" d="M 3345.925781 2187.765625 L 3218.453125 2351.5625 C 3219.359375 2353.050781 3220.324219 2354.539062 3221.316406 2355.980469 L 3350.882812 2189.507812 C 3349.222656 2188.898438 3347.582031 2188.304688 3345.925781 2187.765625 Z M 3345.925781 2187.765625 " fill-opacity="1" fill-rule="evenodd"/><path fill="#d14a95" d="M 3357.441406 2192.257812 L 3225.550781 2361.746094 C 3226.597656 2363.078125 3227.675781 2364.410156 3228.78125 2365.6875 L 3362.03125 2194.480469 C 3360.515625 2193.703125 3358.984375 2192.964844 3357.441406 2192.257812 Z M 3357.441406 2192.257812 " fill-opacity="1" fill-rule="evenodd"/><path fill="#d14a95" d="M 3368.105469 2197.851562 L 3233.496094 2370.8125 C 3234.660156 2372.019531 3235.863281 2373.179688 3237.09375 2374.328125 L 3372.339844 2200.5 C 3370.953125 2199.59375 3369.535156 2198.703125 3368.105469 2197.851562 Z M 3368.105469 2197.851562 " fill-opacity="1" fill-rule="evenodd"/><path fill="#d14a95" d="M 3377.964844 2204.46875 L 3242.265625 2378.886719 C 3242.890625 2379.414062 3243.539062 2379.9375 3244.191406 2380.445312 C 3244.859375 2380.96875 3245.507812 2381.464844 3246.175781 2381.949219 L 3381.875 2207.570312 C 3381.238281 2207.03125 3380.597656 2206.507812 3379.949219 2206.011719 C 3379.3125 2205.472656 3378.644531 2204.976562 3377.964844 2204.46875 Z M 3377.964844 2204.46875 " fill-opacity="1" fill-rule="evenodd"/><path fill="#d14a95" d="M 3387.074219 2212.101562 L 3251.796875 2385.914062 C 3253.1875 2386.847656 3254.601562 2387.742188 3256.035156 2388.589844 L 3390.640625 2215.601562 C 3389.480469 2214.410156 3388.304688 2213.265625 3387.074219 2212.101562 Z M 3387.074219 2212.101562 " fill-opacity="1" fill-rule="evenodd"/><path fill="#d14a95" d="M 3395.359375 2220.757812 L 3262.109375 2391.960938 C 3263.640625 2392.742188 3265.15625 2393.476562 3266.699219 2394.1875 L 3398.617188 2224.695312 C 3397.570312 2223.363281 3396.464844 2222.046875 3395.359375 2220.757812 Z M 3395.359375 2220.757812 " fill-opacity="1" fill-rule="evenodd"/><path fill="#d14a95" d="M 3402.824219 2230.476562 L 3273.285156 2396.933594 C 3274.929688 2397.558594 3276.558594 2398.152344 3278.230469 2398.675781 L 3405.683594 2234.894531 C 3404.777344 2233.40625 3403.816406 2231.921875 3402.824219 2230.476562 Z M 3402.824219 2230.476562 " fill-opacity="1" fill-rule="evenodd"/><path fill="#d14a95" d="M 3409.382812 2241.355469 L 3285.355469 2400.71875 C 3287.125 2401.171875 3288.925781 2401.582031 3290.722656 2401.921875 L 3411.832031 2246.328125 C 3411.054688 2244.65625 3410.246094 2242.96875 3409.382812 2241.355469 Z M 3409.382812 2241.355469 " fill-opacity="1" fill-rule="evenodd"/><path fill="#d14a95" d="M 3414.878906 2253.578125 L 3298.457031 2403.167969 C 3300.414062 2403.421875 3302.367188 2403.59375 3304.335938 2403.734375 L 3416.847656 2259.175781 C 3416.253906 2257.289062 3415.585938 2255.433594 3414.878906 2253.578125 Z M 3414.878906 2253.578125 " fill-opacity="1" fill-rule="evenodd"/><path fill="#d14a95" d="M 3419.140625 2267.417969 L 3312.847656 2404.019531 C 3315.003906 2403.988281 3317.199219 2403.917969 3319.351562 2403.761719 L 3420.460938 2273.835938 C 3420.078125 2271.683594 3419.636719 2269.542969 3419.140625 2267.417969 Z M 3419.140625 2267.417969 " fill-opacity="1" fill-rule="evenodd"/><g clip-path="url(#df4befdcc3)"><path fill="#d14a95" d="M 3421.71875 2283.414062 L 3328.871094 2402.699219 C 3331.375 2402.316406 3333.828125 2401.863281 3336.292969 2401.285156 L 3422.144531 2290.992188 C 3422.074219 2288.441406 3421.945312 2285.917969 3421.71875 2283.414062 Z M 3421.71875 2283.414062 " fill-opacity="1" fill-rule="evenodd"/></g><g clip-path="url(#ab73849ad6)"><path fill="#d14a95" d="M 3421.761719 2302.648438 L 3347.46875 2398.152344 C 3350.511719 2397.089844 3353.542969 2395.902344 3356.519531 2394.597656 L 3420.53125 2312.367188 C 3421.070312 2309.136719 3421.480469 2305.90625 3421.761719 2302.648438 Z M 3421.761719 2302.648438 " fill-opacity="1" fill-rule="evenodd"/></g><path fill="#d14a95" d="M 3416.296875 2328.996094 L 3371.546875 2386.464844 C 3377.371094 2382.710938 3382.878906 2378.351562 3388.023438 2373.433594 L 3407.65625 2348.207031 C 3411.167969 2342 3414.070312 2335.570312 3416.296875 2328.996094 Z M 3416.296875 2328.996094 " fill-opacity="1" fill-rule="evenodd"/><g clip-path="url(#5a94d9d533)"><path fill="#f3a1b6" d="M -2.699219 -626.699219 L -423.609375 434.46875 C -416.242188 439.722656 -408.707031 444.808594 -401.074219 449.726562 L 24.128906 -622.324219 C 15.1875 -623.980469 6.238281 -625.46875 -2.699219 -626.699219 Z M -2.699219 -626.699219 " fill-opacity="1" fill-rule="evenodd"/></g><g clip-path="url(#626a63cb52)"><path fill="#f3a1b6" d="M 60.316406 -614.347656 L -369.257812 468.75 C -361.539062 473.042969 -353.664062 477.148438 -345.6875 481.101562 L 86.011719 -607.238281 C 77.414062 -609.785156 68.917969 -612.238281 60.316406 -614.347656 Z M 60.316406 -614.347656 " fill-opacity="1" fill-rule="evenodd"/></g><g clip-path="url(#9ab23d61d8)"><path fill="#f3a1b6" d="M 120.71875 -595.492188 L -312.371094 496.445312 C -308.335938 498.199219 -304.214844 499.855469 -300.09375 501.527344 C -295.984375 503.101562 -291.863281 504.671875 -287.742188 506.261719 L 145.433594 -585.761719 C 141.3125 -587.433594 137.277344 -589.191406 133.167969 -590.761719 C 129.046875 -592.433594 124.839844 -594.003906 120.71875 -595.492188 Z M 120.71875 -595.492188 " fill-opacity="1" fill-rule="evenodd"/></g><g clip-path="url(#6a52c16e61)"><path fill="#f3a1b6" d="M 178.652344 -570.421875 L -252.953125 517.917969 C -244.4375 520.453125 -235.855469 522.90625 -227.257812 525.101562 L 202.320312 -558.066406 C 194.601562 -562.359375 186.710938 -566.480469 178.652344 -570.421875 Z M 178.652344 -570.421875 " fill-opacity="1" fill-rule="evenodd"/></g><g clip-path="url(#e9ee9b8aac)"><path fill="#f3a1b6" d="M 234.136719 -539.042969 L -191.066406 532.992188 C -182.113281 534.660156 -173.175781 536.148438 -164.238281 537.367188 L 256.65625 -523.789062 C 249.304688 -529.058594 241.769531 -534.140625 234.136719 -539.042969 Z M 234.136719 -539.042969 " fill-opacity="1" fill-rule="evenodd"/></g><g clip-path="url(#c457837299)"><path fill="#f3a1b6" d="M 286.914062 -500.910156 L -126.542969 541.40625 C -117.167969 542.097656 -107.789062 542.636719 -98.496094 542.808594 L 308.289062 -482.765625 C 301.277344 -488.898438 294.179688 -495.046875 286.914062 -500.910156 Z M 286.914062 -500.910156 " fill-opacity="1" fill-rule="evenodd"/></g><g clip-path="url(#48b74b9960)"><path fill="#f3a1b6" d="M 336.789062 -455.425781 L -59.0625 542.453125 C -49.246094 542.097656 -39.417969 541.40625 -29.683594 540.527344 L 356.773438 -433.863281 C 350.285156 -441.214844 343.613281 -448.414062 336.789062 -455.425781 Z M 336.789062 -455.425781 " fill-opacity="1" fill-rule="evenodd"/></g><path fill="#f3a1b6" d="M 383.320312 -401.511719 L 11.761719 535.1875 C 22.1875 533.429688 32.441406 531.503906 42.695312 529.222656 L 401.734375 -376.011719 C 395.855469 -384.679688 389.722656 -393.179688 383.320312 -401.511719 Z M 383.320312 -401.511719 " fill-opacity="1" fill-rule="evenodd"/><path fill="#f3a1b6" d="M 425.828125 -337.523438 L 86.621094 517.734375 C 97.757812 514.320312 108.707031 510.636719 119.570312 506.601562 L 442.214844 -306.84375 C 437.046875 -317.28125 431.621094 -327.453125 425.828125 -337.523438 Z M 425.828125 -337.523438 " fill-opacity="1" fill-rule="evenodd"/><path fill="#f3a1b6" d="M 463.082031 -260.125 L 166.722656 486.882812 C 178.921875 481.1875 190.832031 475.054688 202.574219 468.480469 L 476.582031 -222.175781 C 472.457031 -234.964844 467.996094 -247.671875 463.082031 -260.125 Z M 463.082031 -260.125 " fill-opacity="1" fill-rule="evenodd"/><path fill="#f3a1b6" d="M 492.191406 -162.296875 L 255 435.601562 C 269.121094 425.617188 282.875 415.089844 296.105469 403.871094 L 500.335938 -111.015625 C 498.410156 -128.285156 495.605469 -145.382812 492.191406 -162.296875 Z M 492.191406 -162.296875 " fill-opacity="1" fill-rule="evenodd"/><g clip-path="url(#e7be94dd2b)"><path fill="#f3a1b6" d="M 503.664062 -20.03125 L 360.882812 339.886719 C 384.992188 312.007812 406.71875 281.496094 425.558594 248.714844 L 488.238281 90.671875 C 497.007812 53.871094 502.089844 16.785156 503.664062 -20.03125 Z M 503.664062 -20.03125 " fill-opacity="1" fill-rule="evenodd"/></g><path fill="#f3a1b6" d="M 2332.359375 1394.140625 L 2300.007812 1475.722656 C 2295.488281 1494.730469 2292.910156 1513.871094 2292.089844 1532.863281 L 2365.800781 1347.085938 C 2353.308594 1361.460938 2342.132812 1377.214844 2332.359375 1394.140625 Z M 2332.359375 1394.140625 " fill-opacity="1" fill-rule="evenodd"/><path fill="#f3a1b6" d="M 2399.1875 1314.050781 L 2293.757812 1579.839844 C 2294.808594 1588.75 2296.210938 1597.574219 2298.023438 1606.3125 L 2420.449219 1297.675781 C 2413.125 1302.832031 2406.058594 1308.257812 2399.1875 1314.050781 Z M 2399.1875 1314.050781 " fill-opacity="1" fill-rule="evenodd"/><path fill="#f3a1b6" d="M 2447.460938 1280.703125 L 2306.070312 1637.207031 C 2308.152344 1643.867188 2310.503906 1650.382812 2313.039062 1656.800781 L 2465.976562 1271.199219 C 2459.730469 1274.132812 2453.523438 1277.304688 2447.460938 1280.703125 Z M 2447.460938 1280.703125 " fill-opacity="1" fill-rule="evenodd"/><path fill="#f3a1b6" d="M 2490.351562 1261.015625 L 2323.804688 1680.964844 C 2326.4375 1686.304688 2329.285156 1691.546875 2332.273438 1696.761719 L 2507.367188 1255.320312 C 2501.628906 1257.035156 2495.960938 1258.933594 2490.351562 1261.015625 Z M 2490.351562 1261.015625 " fill-opacity="1" fill-rule="evenodd"/><path fill="#f3a1b6" d="M 2530.042969 1249.34375 L 2344.667969 1716.621094 C 2347.742188 1721.097656 2350.914062 1725.488281 2354.214844 1729.792969 L 2545.964844 1246.269531 C 2540.625 1247.175781 2535.285156 1248.167969 2530.042969 1249.34375 Z M 2530.042969 1249.34375 " fill-opacity="1" fill-rule="evenodd"/><g clip-path="url(#a0647e7207)"><path fill="#f3a1b6" d="M 2567.367188 1243.503906 L 2367.882812 1746.480469 C 2371.226562 1750.292969 2374.667969 1754.003906 2378.238281 1757.617188 L 2582.523438 1242.515625 C 2577.46875 1242.742188 2572.4375 1243.050781 2567.367188 1243.503906 Z M 2567.367188 1243.503906 " fill-opacity="1" fill-rule="evenodd"/></g><g clip-path="url(#10206818f6)"><path fill="#f3a1b6" d="M 2602.9375 1242.328125 L 2392.941406 1771.738281 C 2396.527344 1774.941406 2400.238281 1778.070312 2403.992188 1781.101562 L 2617.371094 1243.050781 C 2612.566406 1242.683594 2607.722656 1242.414062 2602.9375 1242.328125 Z M 2602.9375 1242.328125 " fill-opacity="1" fill-rule="evenodd"/></g><path fill="#f3a1b6" d="M 2636.875 1245.132812 L 2419.601562 1792.917969 C 2423.394531 1795.621094 2427.292969 1798.257812 2431.214844 1800.792969 L 2650.714844 1247.402344 C 2646.097656 1246.535156 2641.476562 1245.773438 2636.875 1245.132812 Z M 2636.875 1245.132812 " fill-opacity="1" fill-rule="evenodd"/><path fill="#f3a1b6" d="M 2669.398438 1251.507812 L 2447.644531 1810.609375 C 2451.625 1812.820312 2455.707031 1814.945312 2459.8125 1816.984375 L 2682.65625 1255.179688 C 2678.222656 1253.859375 2673.832031 1252.601562 2669.398438 1251.507812 Z M 2669.398438 1251.507812 " fill-opacity="1" fill-rule="evenodd"/><path fill="#f3a1b6" d="M 2700.574219 1261.242188 L 2477.011719 1824.902344 C 2479.09375 1825.808594 2481.21875 1826.671875 2483.34375 1827.523438 C 2485.480469 1828.34375 2487.605469 1829.152344 2489.730469 1829.972656 L 2713.335938 1266.269531 C 2711.210938 1265.40625 2709.128906 1264.5 2707.003906 1263.691406 C 2704.867188 1262.828125 2702.699219 1262.007812 2700.574219 1261.242188 Z M 2700.574219 1261.242188 " fill-opacity="1" fill-rule="evenodd"/><path fill="#f3a1b6" d="M 2730.476562 1274.1875 L 2507.691406 1835.992188 C 2512.082031 1837.296875 2516.515625 1838.570312 2520.949219 1839.703125 L 2742.699219 1280.5625 C 2738.71875 1278.339844 2734.640625 1276.214844 2730.476562 1274.1875 Z M 2730.476562 1274.1875 " fill-opacity="1" fill-rule="evenodd"/><path fill="#f3a1b6" d="M 2759.117188 1290.378906 L 2539.632812 1843.769531 C 2544.25 1844.632812 2548.867188 1845.398438 2553.472656 1846.035156 L 2770.746094 1298.253906 C 2766.949219 1295.535156 2763.054688 1292.914062 2759.117188 1290.378906 Z M 2759.117188 1290.378906 " fill-opacity="1" fill-rule="evenodd"/><g clip-path="url(#b9c3f05178)"><path fill="#f3a1b6" d="M 2786.371094 1310.070312 L 2572.933594 1848.121094 C 2577.777344 1848.472656 2582.625 1848.742188 2587.410156 1848.839844 L 2797.40625 1319.433594 C 2793.777344 1316.261719 2790.109375 1313.101562 2786.371094 1310.070312 Z M 2786.371094 1310.070312 " fill-opacity="1" fill-rule="evenodd"/></g><path fill="#f3a1b6" d="M 2812.109375 1333.554688 L 2607.78125 1848.65625 C 2612.835938 1848.472656 2617.90625 1848.121094 2622.9375 1847.667969 L 2822.417969 1344.675781 C 2819.078125 1340.878906 2815.636719 1337.167969 2812.109375 1333.554688 Z M 2812.109375 1333.554688 " fill-opacity="1" fill-rule="evenodd"/><path fill="#f3a1b6" d="M 2836.132812 1361.378906 L 2644.324219 1844.902344 C 2649.722656 1843.996094 2655.003906 1843.003906 2660.304688 1841.828125 L 2845.636719 1374.535156 C 2842.605469 1370.0625 2839.433594 1365.667969 2836.132812 1361.378906 Z M 2836.132812 1361.378906 " fill-opacity="1" fill-rule="evenodd"/><path fill="#f3a1b6" d="M 2858.074219 1394.410156 L 2682.96875 1835.894531 C 2688.71875 1834.136719 2694.371094 1832.226562 2699.980469 1830.144531 L 2866.542969 1410.25 C 2863.867188 1404.867188 2861.0625 1399.609375 2858.074219 1394.410156 Z M 2858.074219 1394.410156 " fill-opacity="1" fill-rule="evenodd"/><path fill="#f3a1b6" d="M 2877.308594 1434.359375 L 2724.328125 1819.972656 C 2730.617188 1817.027344 2736.765625 1813.867188 2742.828125 1810.46875 L 2884.277344 1453.949219 C 2882.152344 1447.347656 2879.84375 1440.789062 2877.308594 1434.359375 Z M 2877.308594 1434.359375 " fill-opacity="1" fill-rule="evenodd"/><path fill="#f3a1b6" d="M 2892.324219 1484.859375 L 2769.898438 1793.496094 C 2777.175781 1788.339844 2784.289062 1782.914062 2791.117188 1777.121094 L 2896.542969 1511.332031 C 2895.539062 1502.421875 2894.09375 1493.597656 2892.324219 1484.859375 Z M 2892.324219 1484.859375 " fill-opacity="1" fill-rule="evenodd"/><g clip-path="url(#58297515d2)"><path fill="#f3a1b6" d="M 2898.257812 1558.292969 L 2824.542969 1744.085938 C 2836.996094 1729.695312 2848.214844 1713.957031 2857.945312 1697.03125 L 2890.296875 1615.449219 C 2894.816406 1596.441406 2897.4375 1577.300781 2898.257812 1558.292969 Z M 2898.257812 1558.292969 " fill-opacity="1" fill-rule="evenodd"/></g><g clip-path="url(#7b2044547d)"><path fill="#f7bd2e" d="M 5185.867188 2442.832031 C 5184.066406 2445.195312 5181.207031 2446.671875 5178.019531 2446.671875 C 5175.074219 2446.671875 5172.453125 2445.367188 5170.652344 2443.398438 C 5175.738281 2443.15625 5180.808594 2442.988281 5185.867188 2442.832031 Z M 5185.867188 2442.832031 " fill-opacity="1" fill-rule="evenodd"/></g><path fill="#f7bd2e" d="M 5064.785156 2464.277344 C 5070.265625 2464.277344 5074.6875 2468.710938 5074.6875 2474.195312 C 5074.6875 2479.675781 5070.265625 2484.109375 5064.785156 2484.109375 C 5059.304688 2484.109375 5054.882812 2479.675781 5054.882812 2474.195312 C 5054.882812 2468.710938 5059.304688 2464.277344 5064.785156 2464.277344 Z M 5064.785156 2464.277344 " fill-opacity="1" fill-rule="evenodd"/><path fill="#f7bd2e" d="M 5140.296875 2464.277344 C 5145.78125 2464.277344 5150.199219 2468.710938 5150.199219 2474.195312 C 5150.199219 2479.675781 5145.78125 2484.109375 5140.296875 2484.109375 C 5134.816406 2484.109375 5130.398438 2479.675781 5130.398438 2474.195312 C 5130.398438 2468.710938 5134.816406 2464.277344 5140.296875 2464.277344 Z M 5140.296875 2464.277344 " fill-opacity="1" fill-rule="evenodd"/><path fill="#f7bd2e" d="M 4954.910156 2501.304688 C 4958.746094 2502.609375 4961.453125 2506.308594 4961.453125 2510.640625 C 4961.453125 2516.054688 4957.03125 2520.558594 4951.550781 2520.558594 C 4946.070312 2520.558594 4941.648438 2516.054688 4941.648438 2510.640625 C 4941.648438 2509.734375 4941.804688 2508.914062 4941.976562 2508.191406 C 4946.226562 2505.8125 4950.574219 2503.515625 4954.910156 2501.304688 Z M 4954.910156 2501.304688 " fill-opacity="1" fill-rule="evenodd"/><path fill="#f7bd2e" d="M 5027.0625 2500.726562 C 5032.546875 2500.726562 5036.964844 2505.160156 5036.964844 2510.640625 C 5036.964844 2516.054688 5032.546875 2520.558594 5027.0625 2520.558594 C 5021.582031 2520.558594 5017.164062 2516.054688 5017.164062 2510.640625 C 5017.164062 2505.160156 5021.582031 2500.726562 5027.0625 2500.726562 Z M 5027.0625 2500.726562 " fill-opacity="1" fill-rule="evenodd"/><path fill="#f7bd2e" d="M 5102.578125 2500.726562 C 5107.988281 2500.726562 5112.476562 2505.160156 5112.476562 2510.640625 C 5112.476562 2516.054688 5107.988281 2520.558594 5102.578125 2520.558594 C 5097.09375 2520.558594 5092.675781 2516.054688 5092.675781 2510.640625 C 5092.675781 2505.160156 5097.09375 2500.726562 5102.578125 2500.726562 Z M 5102.578125 2500.726562 " fill-opacity="1" fill-rule="evenodd"/><g clip-path="url(#95298e9664)"><path fill="#f7bd2e" d="M 5178.019531 2500.726562 C 5183.5 2500.726562 5187.921875 2505.160156 5187.921875 2510.640625 C 5187.921875 2516.054688 5183.5 2520.558594 5178.019531 2520.558594 C 5172.535156 2520.558594 5168.117188 2516.054688 5168.117188 2510.640625 C 5168.117188 2505.160156 5172.535156 2500.726562 5178.019531 2500.726562 Z M 5178.019531 2500.726562 " fill-opacity="1" fill-rule="evenodd"/></g><path fill="#f7bd2e" d="M 4913.832031 2538.164062 C 4919.3125 2538.164062 4923.730469 2542.585938 4923.730469 2548.066406 C 4923.730469 2553.5625 4919.3125 2557.984375 4913.832031 2557.984375 C 4908.347656 2557.984375 4903.929688 2553.5625 4903.929688 2548.066406 C 4903.929688 2542.570312 4908.347656 2538.164062 4913.832031 2538.164062 Z M 4913.832031 2538.164062 " fill-opacity="1" fill-rule="evenodd"/><path fill="#f7bd2e" d="M 4989.34375 2538.164062 C 4994.753906 2538.164062 4999.246094 2542.585938 4999.246094 2548.066406 C 4999.246094 2553.5625 4994.753906 2557.984375 4989.34375 2557.984375 C 4983.859375 2557.984375 4979.441406 2553.5625 4979.441406 2548.066406 C 4979.441406 2542.570312 4983.859375 2538.164062 4989.34375 2538.164062 Z M 4989.34375 2538.164062 " fill-opacity="1" fill-rule="evenodd"/><path fill="#f7bd2e" d="M 5064.785156 2538.164062 C 5070.265625 2538.164062 5074.6875 2542.585938 5074.6875 2548.066406 C 5074.6875 2553.5625 5070.265625 2557.984375 5064.785156 2557.984375 C 5059.304688 2557.984375 5054.882812 2553.5625 5054.882812 2548.066406 C 5054.882812 2542.570312 5059.304688 2538.164062 5064.785156 2538.164062 Z M 5064.785156 2538.164062 " fill-opacity="1" fill-rule="evenodd"/><path fill="#f7bd2e" d="M 5140.296875 2538.164062 C 5145.78125 2538.164062 5150.199219 2542.585938 5150.199219 2548.066406 C 5150.199219 2553.5625 5145.78125 2557.984375 5140.296875 2557.984375 C 5134.816406 2557.984375 5130.398438 2553.5625 5130.398438 2548.066406 C 5130.398438 2542.570312 5134.816406 2538.164062 5140.296875 2538.164062 Z M 5140.296875 2538.164062 " fill-opacity="1" fill-rule="evenodd"/><g clip-path="url(#aea26cb42f)"><path fill="#f7bd2e" d="M 4876.109375 2574.527344 C 4881.507812 2574.527344 4886.011719 2579.019531 4886.011719 2584.429688 C 4886.011719 2589.925781 4881.507812 2594.347656 4876.109375 2594.347656 C 4870.628906 2594.347656 4866.207031 2589.925781 4866.207031 2584.429688 C 4866.207031 2579.03125 4870.628906 2574.527344 4876.109375 2574.527344 Z M 4876.109375 2574.527344 " fill-opacity="1" fill-rule="evenodd"/></g><g clip-path="url(#1bbf250521)"><path fill="#f7bd2e" d="M 4951.550781 2574.527344 C 4957.03125 2574.527344 4961.453125 2579.019531 4961.453125 2584.429688 C 4961.453125 2589.925781 4957.03125 2594.347656 4951.550781 2594.347656 C 4946.070312 2594.347656 4941.648438 2589.925781 4941.648438 2584.429688 C 4941.648438 2579.03125 4946.070312 2574.527344 4951.550781 2574.527344 Z M 4951.550781 2574.527344 " fill-opacity="1" fill-rule="evenodd"/></g><g clip-path="url(#1f5174f917)"><path fill="#f7bd2e" d="M 5027.0625 2574.527344 C 5032.546875 2574.527344 5036.964844 2579.019531 5036.964844 2584.429688 C 5036.964844 2589.925781 5032.546875 2594.347656 5027.0625 2594.347656 C 5021.582031 2594.347656 5017.164062 2589.925781 5017.164062 2584.429688 C 5017.164062 2579.03125 5021.582031 2574.527344 5027.0625 2574.527344 Z M 5027.0625 2574.527344 " fill-opacity="1" fill-rule="evenodd"/></g><g clip-path="url(#60bf572c88)"><path fill="#f7bd2e" d="M 5102.578125 2574.527344 C 5107.988281 2574.527344 5112.476562 2579.019531 5112.476562 2584.429688 C 5112.476562 2589.925781 5107.988281 2594.347656 5102.578125 2594.347656 C 5097.09375 2594.347656 5092.675781 2589.925781 5092.675781 2584.429688 C 5092.675781 2579.03125 5097.09375 2574.527344 5102.578125 2574.527344 Z M 5102.578125 2574.527344 " fill-opacity="1" fill-rule="evenodd"/></g><g clip-path="url(#2a98af759c)"><path fill="#f7bd2e" d="M 5178.019531 2574.527344 C 5183.5 2574.527344 5187.921875 2579.019531 5187.921875 2584.429688 C 5187.921875 2589.925781 5183.5 2594.347656 5178.019531 2594.347656 C 5172.535156 2594.347656 5168.117188 2589.925781 5168.117188 2584.429688 C 5168.117188 2579.03125 5172.535156 2574.527344 5178.019531 2574.527344 Z M 5178.019531 2574.527344 " fill-opacity="1" fill-rule="evenodd"/></g><g clip-path="url(#0714ddff31)"><path fill="#b164a5" d="M 5118.128906 2327.664062 C 5266.136719 2327.664062 5400.152344 2387.699219 5497.195312 2484.832031 C 5594.152344 2581.894531 5654.210938 2716.054688 5654.210938 2864.296875 C 5654.210938 3012.457031 5594.152344 3146.617188 5497.195312 3243.664062 C 5400.152344 3340.800781 5266.136719 3400.917969 5118.128906 3400.917969 C 4970.121094 3400.917969 4836.09375 3340.800781 4739.066406 3243.664062 C 4642.019531 3146.617188 4582.046875 3012.457031 4582.046875 2864.296875 C 4582.046875 2716.054688 4642.019531 2581.894531 4739.066406 2484.832031 C 4836.109375 2387.699219 4970.121094 2327.664062 5118.128906 2327.664062 Z M 5487.464844 2494.507812 C 5392.957031 2399.910156 5262.382812 2341.347656 5118.128906 2341.347656 C 4973.875 2341.347656 4843.304688 2399.894531 4748.710938 2494.492188 C 4654.21875 2589.105469 4595.800781 2719.894531 4595.800781 2864.296875 C 4595.800781 3008.6875 4654.21875 3139.40625 4748.726562 3234.003906 C 4843.304688 3328.601562 4973.890625 3387.164062 5118.128906 3387.164062 C 5262.382812 3387.164062 5392.957031 3328.601562 5487.464844 3234.003906 C 5582.042969 3139.40625 5640.457031 3008.6875 5640.457031 2864.296875 C 5640.457031 2719.894531 5582.042969 2589.105469 5487.464844 2494.507812 Z M 5487.464844 2494.507812 " fill-opacity="1" fill-rule="nonzero"/></g><path stroke-linecap="butt" transform="matrix(7.697331, -7.697711, 7.692306, 7.692685, 507.491347, 1064.407053)" fill="none" stroke-linejoin="miter" d="M -0.000654409 0.000256332 L 108.431173 -0.000113865 " stroke="#fdcf54" stroke-width="1" stroke-opacity="1" stroke-miterlimit="4"/><path stroke-linecap="butt" transform="matrix(7.697331, -7.697711, 7.692306, 7.692685, 2025.633501, 711.977372)" fill="none" stroke-linejoin="miter" d="M 0.00000785641 -0.0000973643 L 108.431836 0.0000402393 " stroke="#fdcf54" stroke-width="1" stroke-opacity="1" stroke-miterlimit="4"/><g clip-path="url(#52fe168258)"><path stroke-linecap="butt" transform="matrix(7.697331, -7.697711, 7.692306, 7.692685, 4585.89504, 2422.041346)" fill="none" stroke-linejoin="miter" d="M -0.000138412 0.000580174 L 108.430674 -0.000297848 " stroke="#fdcf54" stroke-width="1" stroke-opacity="1" stroke-miterlimit="4"/></g><path stroke-linecap="butt" transform="matrix(7.697331, -7.697711, 7.692306, 7.692685, 3585.152466, 711.977828)" fill="none" stroke-linejoin="miter" d="M 0.000327966 0.0001637 L 108.431141 -0.000714322 " stroke="#b2e6d7" stroke-width="1" stroke-opacity="1" stroke-miterlimit="4"/><g clip-path="url(#431d986d78)"><path stroke-linecap="butt" transform="matrix(7.697331, -7.697711, 7.692306, 7.692685, 1333.085996, 2535.164035)" fill="none" stroke-linejoin="miter" d="M -0.000513078 -0.00000201993 L 108.431568 -0.00011831 " stroke="#e462a2" stroke-width="1" stroke-opacity="1" stroke-miterlimit="4"/></g><g clip-path="url(#a2b273344f)"><path stroke-linecap="butt" transform="matrix(7.697331, -7.697711, 7.692306, 7.692685, 3346.473623, 2911.024947)" fill="none" stroke-linejoin="miter" d="M 0.0000352584 -0.000160966 L 108.431863 -0.0000233626 " stroke="#e462a2" stroke-width="1" stroke-opacity="1" stroke-miterlimit="4"/></g></svg>